<?xml version="1.0" encoding="utf-8"?>
<!-- Generator: Adobe Illustrator 19.1.0, SVG Export Plug-In . SVG Version: 6.00 Build 0)  -->
<svg version="1.1" id="Layer_1" xmlns="http://www.w3.org/2000/svg" xmlns:xlink="http://www.w3.org/1999/xlink" x="0px" y="0px"
	 viewBox="-709 291 500 500" style="enable-background:new -709 291 500 500;" xml:space="preserve">
<style type="text/css">
	.st0{fill:#222222;}
</style>
<g>
	<g>
		<path class="st0" d="M-292,449.5c0,42.8-34.7,77.5-77.6,77.5c-42.8,0-77.5-34.7-77.5-77.6c0-42.8,34.7-77.5,77.5-77.5
			C-326.8,372-292,406.6-292,449.5z"/>
	</g>
	<path class="st0" d="M-357.5,554.7c-36.1,0-64.5,29.1-65.8,64.7v8.4c0,2.8-2.3,5.1-5.2,5.1H-442c-2.9,0-5.2,2.3-5.2,5.1v4.8
		c0,36.8,30.2,67,67.6,67s67.6-30.1,67.6-67V638c0-2.9,2.4-5.3,5.3-5.3h10c2.5,0,4.6-2,4.6-4.6v-9
		C-293.5,583.8-321.4,554.7-357.5,554.7z"/>
	<path class="st0" d="M-483.9,556h-136.6c-2.9,0-5.5,0.9-5.5,3.8v48.8c0,2.9,2.7,5.5,5.5,5.5h22.5V704c0,3,2.2,6.1,5.2,6.1h81.2
		c3,0,5.6-3.2,5.6-6.1v-90h22.1c2.9,0,4.9-2.6,4.9-5.5v-48.8C-479,557-481,556-483.9,556z"/>
	<path class="st0" d="M-556.8,372L-556.8,372h-56.6c-3,0-5.4,2.4-5.4,5.4v144.2c0,3,2.4,5.4,5.4,5.4h56.6
		c42.8,0.2,77.5-34.6,77.5-77.6C-479.2,406.5-514,371.8-556.8,372z"/>
</g>
</svg>
